<svg width="740" height="712" viewBox="0 0 740 712" fill="none" xmlns="http://www.w3.org/2000/svg">
<path d="M735.037 3.97787C729.416 -0.779105 721.003 -0.0785923 716.246 5.5425C711.489 11.1636 712.189 19.5767 717.81 24.3337C723.431 29.0906 731.845 28.3901 736.601 22.769C741.358 17.1479 740.658 8.73484 735.037 3.97787ZM22.7407 687.61C17.1196 682.853 8.70648 683.554 3.94952 689.175C-0.807429 694.796 -0.106921 703.209 5.51418 707.966C11.1353 712.723 19.5484 712.022 24.3053 706.401C29.0623 700.78 28.3618 692.367 22.7407 687.61ZM202.448 266.086L200.96 264.077L202.448 266.086ZM726.424 14.1558C725.888 11.7138 725.888 11.7138 725.888 11.7138C725.888 11.7138 725.888 11.7138 725.888 11.7138C725.888 11.7138 725.888 11.7139 725.888 11.7139C725.887 11.714 725.887 11.7141 725.886 11.7142C725.885 11.7144 725.884 11.7147 725.882 11.7151C725.878 11.7159 725.873 11.7171 725.866 11.7186C725.853 11.7216 725.833 11.726 725.806 11.7318C725.754 11.7434 725.677 11.7607 725.574 11.7837C725.37 11.8296 725.066 11.8983 724.665 11.9905C723.862 12.1749 722.671 12.4531 721.105 12.8299L722.276 17.691C723.824 17.3183 724.999 17.0441 725.784 16.8635C726.177 16.7732 726.473 16.7064 726.669 16.6623C726.768 16.6402 726.841 16.6239 726.889 16.6131C726.914 16.6078 726.931 16.6038 726.943 16.6013C726.949 16.6 726.953 16.5991 726.956 16.5985C726.957 16.5982 726.958 16.598 726.959 16.5979C726.959 16.5978 726.959 16.5978 726.959 16.5977C726.959 16.5977 726.959 16.5977 726.959 16.5977C726.959 16.5977 726.959 16.5977 726.959 16.5977C726.959 16.5977 726.959 16.5978 726.424 14.1558ZM711.272 15.2919C708.388 16.0377 705.099 16.9068 701.424 17.9052L702.736 22.7302C706.39 21.7373 709.659 20.8735 712.523 20.1327L711.272 15.2919ZM691.627 20.6238C688.578 21.4864 685.344 22.4168 681.931 23.4172L683.337 28.2154C686.735 27.2194 689.954 26.2933 692.988 25.4349L691.627 20.6238ZM672.294 26.2871C669.203 27.2221 665.993 28.2067 662.668 29.2419L664.154 34.0158C667.466 32.9847 670.663 32.0041 673.742 31.073L672.294 26.2871ZM653.012 32.2903C649.861 33.2986 646.622 34.348 643.297 35.4395L644.857 40.19C648.169 39.1024 651.396 38.0569 654.535 37.0525L653.012 32.2903ZM633.809 38.5931C630.687 39.6434 627.498 40.7282 624.245 41.8483L625.872 46.5759C629.114 45.4598 632.292 44.3788 635.403 43.3322L633.809 38.5931ZM614.621 45.1993C611.532 46.2872 608.39 47.405 605.198 48.5533L606.89 53.2581C610.072 52.1137 613.203 50.9996 616.282 49.9155L614.621 45.1993ZM595.629 52.0321C592.535 53.1686 589.399 54.3324 586.22 55.524L587.975 60.2059C591.143 59.0182 594.27 57.8581 597.353 56.7254L595.629 52.0321ZM576.739 59.1133C573.641 60.2977 570.507 61.5075 567.336 62.7431L569.152 67.4018C572.312 66.1701 575.437 64.9642 578.525 63.7836L576.739 59.1133ZM557.923 66.4469C554.832 67.6745 551.71 68.9259 548.557 70.2014L550.432 74.8364C553.575 73.565 556.687 72.3175 559.768 71.0939L557.923 66.4469ZM539.191 74.0248C536.115 75.2921 533.011 76.5817 529.882 77.894L531.815 82.505C534.935 81.1968 538.029 79.9112 541.095 78.6479L539.191 74.0248ZM520.547 81.8424C517.49 83.1467 514.41 84.4722 511.307 85.8191L513.298 90.4057C516.392 89.0629 519.462 87.7415 522.51 86.4412L520.547 81.8424ZM501.992 89.8976C498.958 91.2371 495.904 92.5967 492.83 93.9766L494.878 98.538C497.942 97.1623 500.987 95.8069 504.011 94.4715L501.992 89.8976ZM483.55 98.1776C480.533 99.5548 477.499 100.951 474.447 102.367L476.551 106.903C479.593 105.491 482.619 104.099 485.627 102.726L483.55 98.1776ZM465.266 106.661C462.244 108.086 459.206 109.529 456.153 110.992L458.314 115.501C461.357 114.043 464.386 112.604 467.398 111.184L465.266 106.661ZM447.073 115.377C444.046 116.85 441.005 118.342 437.95 119.853L440.166 124.335C443.211 122.829 446.243 121.341 449.261 119.873L447.073 115.377ZM428.97 124.327C425.964 125.837 422.945 127.364 419.915 128.91L422.186 133.364C425.207 131.823 428.217 130.3 431.213 128.796L428.97 124.327ZM410.955 133.514C407.984 135.053 405.002 136.608 402.01 138.182L404.337 142.607C407.32 141.039 410.292 139.488 413.254 137.954L410.955 133.514ZM393.03 142.939C390.093 144.507 387.147 146.091 384.193 147.692L386.575 152.089C389.52 150.492 392.457 148.913 395.384 147.35L393.03 142.939ZM375.301 152.547C372.364 154.162 369.418 155.795 366.464 157.444L368.902 161.809C371.846 160.165 374.783 158.538 377.711 156.928L375.301 152.547ZM357.687 162.38C354.754 164.042 351.813 165.721 348.865 167.416L351.358 171.75C354.296 170.061 357.228 168.387 360.152 166.731L357.687 162.38ZM340.163 172.457C337.268 174.147 334.366 175.852 331.459 177.574L334.007 181.876C336.905 180.16 339.797 178.46 342.683 176.776L340.163 172.457ZM322.732 182.779C319.875 184.496 317.012 186.229 314.144 187.977L316.747 192.246C319.605 190.504 322.459 188.777 325.308 187.065L322.732 182.779ZM305.526 193.269C302.664 195.04 299.797 196.826 296.926 198.628L299.583 202.863C302.445 201.067 305.303 199.286 308.156 197.522L305.526 193.269ZM288.426 204.001C285.589 205.807 282.748 207.629 279.904 209.466L282.617 213.666C285.452 211.835 288.283 210.019 291.111 208.219L288.426 204.001ZM271.426 214.982C268.628 216.816 265.828 218.664 263.025 220.527L265.793 224.691C268.587 222.834 271.378 220.992 274.166 219.164L271.426 214.982ZM254.608 226.163C251.824 228.041 249.038 229.933 246.25 231.841L249.073 235.967C251.852 234.066 254.629 232.18 257.404 230.308L254.608 226.163ZM237.956 237.556C235.19 239.476 232.422 241.41 229.653 243.36L232.531 247.448C235.291 245.505 238.05 243.577 240.807 241.664L237.956 237.556ZM221.413 249.203C218.688 251.15 215.962 253.111 213.235 255.087L216.169 259.136C218.886 257.166 221.603 255.212 224.319 253.272L221.413 249.203ZM205.053 261.058C203.688 262.06 202.324 263.067 200.96 264.077L203.935 268.095C205.295 267.089 206.654 266.086 208.014 265.087L205.053 261.058ZM200.96 264.077C199.57 265.106 198.196 266.137 196.84 267.168L199.866 271.148C201.205 270.13 202.562 269.112 203.935 268.095L200.96 264.077ZM188.901 273.366C186.322 275.436 183.809 277.508 181.36 279.584L184.593 283.398C187.007 281.352 189.485 279.308 192.03 277.266L188.901 273.366ZM173.868 286.124C171.339 288.398 168.886 290.676 166.507 292.956L169.966 296.566C172.307 294.323 174.722 292.081 177.212 289.842L173.868 286.124ZM159.587 299.806C157.197 302.251 154.888 304.7 152.66 307.15L156.359 310.514C158.547 308.108 160.814 305.704 163.163 303.301L159.587 299.806ZM146.114 314.626C143.963 317.18 141.896 319.735 139.91 322.292L143.858 325.359C145.803 322.855 147.829 320.351 149.938 317.848L146.114 314.626ZM133.899 330.381C131.984 333.079 130.156 335.778 128.412 338.477L132.612 341.19C134.316 338.553 136.102 335.914 137.976 333.276L133.899 330.381ZM123.113 347.122C121.438 350.008 119.856 352.893 118.363 355.777L122.803 358.076C124.259 355.263 125.803 352.448 127.438 349.632L123.113 347.122ZM113.964 364.827C112.578 367.874 111.287 370.918 110.087 373.96L114.738 375.795C115.907 372.833 117.165 369.866 118.515 366.898L113.964 364.827ZM106.65 383.387C105.587 386.559 104.618 389.727 103.739 392.889L108.556 394.229C109.413 391.15 110.356 388.065 111.391 384.976L106.65 383.387ZM101.307 402.616C100.581 405.875 99.9459 409.126 99.3951 412.368L104.324 413.205C104.861 410.045 105.48 406.877 106.187 403.703L101.307 402.616ZM97.9638 422.288C97.5696 425.595 97.2582 428.893 97.0234 432.178L102.011 432.534C102.24 429.325 102.544 426.107 102.929 422.879L97.9638 422.288ZM96.538 442.174C96.451 445.503 96.4373 448.819 96.4903 452.119L101.49 452.039C101.438 448.806 101.451 445.561 101.536 442.305L96.538 442.174ZM96.849 462.086C97.0332 465.41 97.2796 468.717 97.5811 472.006L102.56 471.55C102.264 468.318 102.022 465.07 101.841 461.809L96.849 462.086ZM98.6529 481.888C99.0651 485.193 99.5271 488.477 100.032 491.739L104.973 490.975C104.475 487.758 104.02 484.522 103.614 481.269L98.6529 481.888ZM101.673 501.503C102.267 504.784 102.897 508.042 103.557 511.273L108.456 510.273C107.803 507.075 107.18 503.854 106.593 500.612L101.673 501.503ZM105.625 520.943C106.351 524.192 107.098 527.413 107.859 530.604L112.723 529.444C111.966 526.273 111.225 523.076 110.505 519.854L105.625 520.943ZM110.21 540.221C111.012 543.433 111.819 546.613 112.624 549.757L117.468 548.518C116.665 545.379 115.859 542.209 115.061 539.01L110.21 540.221ZM115.092 559.366C115.919 562.583 116.732 565.759 117.522 568.894L122.371 567.672C121.578 564.526 120.762 561.341 119.935 558.121L115.092 559.366ZM119.874 578.424C120.656 581.682 121.399 584.888 122.092 588.04L126.975 586.967C126.275 583.777 125.524 580.539 124.735 577.257L119.874 578.424ZM124.058 597.613C124.672 600.861 125.213 604.042 125.667 607.156L130.615 606.434C130.149 603.241 129.596 599.99 128.971 596.684L124.058 597.613ZM126.804 616.872C127.086 620.189 127.239 623.412 127.243 626.539L132.243 626.531C132.238 623.247 132.078 619.885 131.786 616.449L126.804 616.872ZM126.746 636.09C126.385 639.314 125.82 642.413 125.027 645.385L129.859 646.673C130.722 643.437 131.329 640.091 131.715 636.647L126.746 636.09ZM121.824 654.174C120.5 656.959 118.907 659.618 117.011 662.148L121.013 665.146C123.112 662.344 124.877 659.399 126.34 656.319L121.824 654.174ZM110.691 669.075C108.456 671.111 105.948 673.049 103.142 674.883L105.877 679.068C108.892 677.098 111.613 674.998 114.058 672.772L110.691 669.075ZM94.9804 679.5C92.2705 680.829 89.3512 682.087 86.2094 683.269L87.9705 687.949C91.2501 686.714 94.3175 685.394 97.1825 683.989L94.9804 679.5ZM76.7698 686.395C73.8962 687.23 70.8721 688.014 67.6909 688.746L68.8111 693.619C72.0784 692.868 75.1948 692.06 78.1656 691.196L76.7698 686.395ZM57.9052 690.737C54.9062 691.275 51.7878 691.772 48.5457 692.228L49.2424 697.18C52.5427 696.715 55.7232 696.208 58.7874 695.659L57.9052 690.737ZM38.4463 693.473C35.4298 693.795 32.3187 694.085 29.1103 694.344L29.5122 699.328C32.7615 699.066 35.9156 698.771 38.9772 698.444L38.4463 693.473ZM19.1934 695.024C17.4913 695.121 15.7643 695.21 14.0122 695.291L14.2426 700.285C16.0124 700.204 17.7575 700.114 19.4782 700.016L19.1934 695.024Z" fill="#76E309"/>
</svg>
